<svg width="30" height="30" viewBox="0 0 30 30" fill="none" xmlns="http://www.w3.org/2000/svg">
<path d="M15.0001 0.0622559C6.71586 0.0622559 0 6.77811 0 15.0623C0 22.4923 5.40783 28.6456 12.4984 29.8372V18.1918H8.87992V14.0011H12.4984V10.911C12.4984 7.32566 14.6882 5.37185 17.8871 5.37185C19.4191 5.37185 20.7357 5.48601 21.1179 5.53629V9.28394L18.8993 9.28501C17.16 9.28501 16.8247 10.1113 16.8247 11.3244V13.9989H20.9748L20.4335 18.1896H16.8247V29.9374C24.2463 29.0341 30 22.7241 30 15.058C30 6.77811 23.2841 0.0622559 15.0001 0.0622559Z" fill="#C1C3CB"/>
</svg>
