<svg width="40" height="37" viewBox="0 0 40 37" fill="none" xmlns="http://www.w3.org/2000/svg">
<path d="M17.2768 19.034L17.3255 18.977L17.2768 19.034C17.9744 19.6305 18.6955 20.2471 19.4643 20.9142C19.6179 21.0474 19.8089 21.114 19.9998 21.114C20.1907 21.114 20.3817 21.0474 20.5353 20.9142C21.3041 20.2471 22.0253 19.6305 22.7229 19.034L22.6741 18.977L22.7229 19.034C22.8255 18.9462 22.9275 18.8591 23.0287 18.7726C25.3752 16.767 27.3271 15.0987 28.7072 13.4166C30.1492 11.659 30.9716 9.88086 30.9716 7.67968C30.9716 6.37451 30.5452 4.68855 29.5452 3.327C28.5432 1.96261 26.9655 0.925 24.6719 0.925C22.8112 0.925 21.2435 1.78977 19.9998 3.48675C18.7561 1.78977 17.1884 0.925 15.3277 0.925C13.0341 0.925 11.4564 1.96261 10.4544 3.327C9.45445 4.68855 9.02803 6.37451 9.02803 7.67968C9.02803 9.92858 9.90668 11.7544 11.3763 13.5237C12.7286 15.1517 14.5859 16.737 16.725 18.5628C16.907 18.7181 17.0909 18.8751 17.2768 19.034ZM21.6607 17.7918C21.125 18.2499 20.5752 18.72 19.9998 19.2163C19.4275 18.7227 18.8806 18.255 18.3476 17.7992L18.3389 17.7918L18.2902 17.8488L18.3389 17.7918C15.8536 15.6666 13.9337 14.0246 12.6338 12.467C11.3364 10.9123 10.6624 9.4482 10.6624 7.67968C10.6624 6.4797 11.0552 5.1978 11.8348 4.2174C12.613 3.23885 13.7771 2.55937 15.3277 2.55937C16.9351 2.55937 18.2293 3.47892 19.2828 5.40641C19.4261 5.66857 19.7011 5.83168 19.9998 5.83168C20.2986 5.83168 20.5736 5.66857 20.7168 5.40641C21.7704 3.47892 23.0645 2.55937 24.6719 2.55937C27.7226 2.55937 29.3372 5.2339 29.3372 7.67968C29.3372 9.4482 28.6633 10.9123 27.3658 12.467C26.066 14.0246 24.146 15.6667 21.6607 17.7918Z" fill="#3CB4E5" stroke="#3CB4E5" stroke-width="0.15"/>
<path d="M5.94121 21.2932L5.94123 21.2932L9.74198 25.0947C10.0611 25.4139 10.061 25.9314 9.74189 26.2504C9.42271 26.5695 8.90526 26.5695 8.58622 26.2503L4.78549 22.4488C4.78549 22.4488 4.78548 22.4488 4.78548 22.4488C4.21056 21.874 3.89375 21.1095 3.89375 20.2969C3.89375 19.2129 4.47165 18.2248 5.37813 17.6831V11.3906C5.37813 10.6136 4.74581 9.98125 3.96875 9.98125C3.19169 9.98125 2.55938 10.6136 2.55938 11.3906V21.4725C2.55938 24.5561 4.27255 27.3281 7.03056 28.7075L11.0138 30.6988C11.2906 30.8372 11.4656 31.1202 11.4656 31.4297V35.0657H17.6984V26.1936C17.6984 24.7239 16.5962 23.5054 15.1343 23.3588L15.1215 23.3575L15.1217 23.3565C15.1105 23.3556 14.1579 23.1872 13.017 22.8148C11.8589 22.4369 10.4743 21.8404 9.60074 20.9669C9.60073 20.9668 9.60073 20.9668 9.60073 20.9668L7.93393 19.3007L7.93392 19.3007C7.53143 18.8981 6.95564 18.7951 6.46989 18.9669C6.46964 18.967 6.46939 18.9671 6.46913 18.9672L5.94121 21.2932ZM5.94121 21.2932C5.67465 21.0267 5.52812 20.6732 5.52812 20.2969C5.52812 19.7009 5.90518 19.167 6.4664 18.9682L5.94121 21.2932ZM6.29966 30.1693L6.33321 30.1023L6.29967 30.1693L9.83125 31.9348V35.8829C9.83125 36.3341 10.1972 36.7001 10.6484 36.7001H18.5156C18.9669 36.7001 19.3328 36.3341 19.3328 35.8829V26.1936C19.3328 23.8812 17.5979 21.9632 15.3031 21.7331L15.243 21.7267L15.2424 21.7266C14.5992 21.6621 13.702 21.4088 12.8504 21.0566C11.9977 20.7039 11.2023 20.2569 10.7563 19.8109L10.7563 19.8109L9.08951 18.1448C8.53231 17.5877 7.79708 17.2729 7.0125 17.254V11.3906C7.0125 9.71224 5.64714 8.34687 3.96875 8.34687C2.29036 8.34687 0.925 9.71224 0.925 11.3906V21.4725C0.925 25.1535 3.00417 28.5212 6.29966 30.1693Z" fill="#3CB4E5" stroke="#3CB4E5" stroke-width="0.15"/>
<path d="M35.3086 28.3125C35.3086 28.4463 35.2001 28.5548 35.0664 28.5548C34.9327 28.5548 34.8242 28.4463 34.8242 28.3125C34.8242 28.1787 34.9327 28.0703 35.0664 28.0703C35.2001 28.0703 35.3086 28.1787 35.3086 28.3125Z" fill="#3CB4E5" stroke="#3CB4E5"/>
<path d="M28.5344 35.0657V31.4297C28.5344 31.1202 28.7093 30.8372 28.9861 30.6988L31.8256 29.2793C31.8256 29.2793 31.8256 29.2793 31.8257 29.2793C32.2293 29.0774 32.7202 29.2413 32.922 29.6448L32.922 29.6449C33.1238 30.0486 32.9601 30.5394 32.5565 30.7412L32.5229 30.6741L32.5565 30.7412L30.1687 31.9348V35.8829C30.1687 36.3341 29.8028 36.7001 29.3516 36.7001H21.4844C21.0331 36.7001 20.6672 36.3341 20.6672 35.8829V26.1936C20.6672 23.8813 22.402 21.9634 24.7024 21.7326C24.7025 21.7326 24.7026 21.7326 24.7027 21.7326L24.7512 21.7273L24.7518 21.7272C25.3979 21.6625 26.2966 21.409 27.1488 21.0567C28.0023 20.704 28.7976 20.257 29.2435 19.8111L29.2435 19.8111L30.9106 18.1448C30.9106 18.1448 30.9106 18.1448 30.9106 18.1448C31.4677 17.5877 32.2029 17.2729 32.9875 17.254V11.3906C32.9875 9.71224 34.3529 8.34687 36.0312 8.34687C37.7096 8.34687 39.075 9.71224 39.075 11.3906V21.4725C39.075 23.0899 38.6669 24.6954 37.8946 26.1159C37.6791 26.5126 37.1827 26.6591 36.7863 26.4435C36.3897 26.228 36.243 25.7318 36.4587 25.3353C37.1011 24.1537 37.4406 22.8179 37.4406 21.4725V11.3906C37.4406 10.6136 36.8083 9.98125 36.0312 9.98125C35.2542 9.98125 34.6219 10.6136 34.6219 11.3906V17.6831C35.5284 18.2248 36.1062 19.2129 36.1062 20.2969C36.1062 21.1095 35.7894 21.874 35.2146 22.449L35.1616 22.396L35.2146 22.449L31.4139 26.2504C31.0948 26.5696 30.5772 26.5696 30.2582 26.2505C29.9391 25.9314 29.939 25.4139 30.2581 25.0948L34.0588 21.2933C34.3253 21.0268 34.4719 20.6732 34.4719 20.2969C34.4719 19.7046 34.0995 19.1736 33.5439 18.9719H33.5393L33.5279 18.9662L33.5279 18.9662M28.5344 35.0657L33.5324 18.9677M28.5344 35.0657H22.3016V26.1936C22.3016 24.724 23.4036 23.5054 24.8714 23.3582L24.872 23.3582L24.9205 23.3529C24.9206 23.3529 24.9207 23.3529 24.9208 23.3529C25.7354 23.2711 26.8116 22.9668 27.8283 22.5387C28.8442 22.111 29.8103 21.5557 30.399 20.9669C30.399 20.9669 30.399 20.9669 30.3991 20.9669L28.5344 35.0657ZM33.5279 18.9662L33.5265 18.9655C33.5253 18.965 33.5242 18.9644 33.523 18.9638L33.523 18.9637M33.5279 18.9662C33.5269 18.9658 33.5259 18.9655 33.5249 18.9652L33.5163 18.9621L33.5043 18.9501C33.5113 18.9571 33.5184 18.9614 33.523 18.9637M33.5279 18.9662L33.5324 18.9677M33.523 18.9637C33.5232 18.9638 33.5233 18.9639 33.5235 18.964C33.5235 18.964 33.5235 18.964 33.5235 18.964C33.5257 18.9651 33.5283 18.9663 33.5314 18.9674M33.523 18.9637L33.5554 18.899L33.5565 18.8968L33.5559 18.8985L33.5551 18.9008L33.5314 18.9674M33.5314 18.9674L33.5314 18.9674C33.5318 18.9675 33.5321 18.9676 33.5324 18.9677M33.5314 18.9674C33.5317 18.9675 33.532 18.9676 33.5324 18.9677" fill="#3CB4E5" stroke="#3CB4E5" stroke-width="0.15"/>
</svg>
