<?xml version="1.0" encoding="utf-8"?>
<!-- Generator: Adobe Illustrator 26.0.2, SVG Export Plug-In . SVG Version: 6.00 Build 0)  -->
<svg version="1.1" id="Layer_1" xmlns="http://www.w3.org/2000/svg" xmlns:xlink="http://www.w3.org/1999/xlink" x="0px" y="0px"
	 viewBox="0 0 51 51" style="enable-background:new 0 0 51 51;" xml:space="preserve" widht="51" height="51">
<style type="text/css">
	.st0{fill:#3EB3E3;}
</style>
<g>
	<path class="st0" d="M25.5,48C13.1,48,3,37.9,3,25.5C3,13.1,13.1,3,25.5,3C37.9,3,48,13.1,48,25.5C48,37.9,37.9,48,25.5,48z
		 M25.5,0C11.4,0,0,11.4,0,25.5C0,39.6,11.4,51,25.5,51C39.6,51,51,39.6,51,25.5C51,11.4,39.6,0,25.5,0z"/>
	<path class="st0" d="M33,18.6c1-1,2.3-1.6,3.7-1.6c1.4,0,2.7,0.6,3.7,1.6c0.6,0.6,1.5,0.6,2.1,0c0.6-0.6,0.6-1.5,0-2.1
		C41,14.9,38.9,14,36.7,14c-2.2,0-4.3,0.9-5.9,2.4l0,0c-0.6,0.6-0.6,1.5,0,2.1C31.4,19.1,32.4,19.1,33,18.6z"/>
	<path class="st0" d="M10.6,18.6c1-1,2.3-1.6,3.7-1.6c1.4,0,2.7,0.6,3.7,1.6c0.6,0.6,1.5,0.6,2.1,0c0.6-0.6,0.6-1.5,0-2.1
		c-1.6-1.6-3.6-2.4-5.9-2.4c-2.2,0-4.3,0.9-5.9,2.4l0,0c-0.6,0.6-0.6,1.5,0,2.1C9,19.1,10,19.1,10.6,18.6z"/>
	<path class="st0" d="M25.5,40.2c-7.6,0-13.7-5.8-14.4-13h28.9C39.2,34.5,33.1,40.2,25.5,40.2z M41.5,24.2h-32
		c-0.8,0-1.5,0.7-1.5,1.5c0,9.7,7.8,17.5,17.5,17.5S43,35.4,43,25.7C43,24.9,42.3,24.2,41.5,24.2z"/>
</g>
</svg>
